<?xml version="1.0"?>
<svg xmlns="http://www.w3.org/2000/svg" xmlns:xlink="http://www.w3.org/1999/xlink" xmlns:svgjs="http://svgjs.com/svgjs" version="1.1" width="512" height="512" x="0" y="0" viewBox="0 0 508.644 508.644" style="enable-background:new 0 0 512 512" xml:space="preserve"><g><g xmlns="http://www.w3.org/2000/svg"><path d="m151.076 147.141c4.143 0 7.5-3.358 7.5-7.5v-81.938c0-5.015 3.209-9.412 7.984-10.941l19.43-6.224v24.216c0 11.44 9.307 20.748 20.747 20.748h95.17c11.44 0 20.747-9.307 20.747-20.748v-24.217l19.43 6.224c4.775 1.53 7.984 5.927 7.984 10.941v10.241c0 4.142 3.357 7.5 7.5 7.5s7.5-3.358 7.5-7.5v-10.24c0-11.561-7.398-21.699-18.408-25.226l-24.006-7.691v-4.038c0-11.441-9.307-20.748-20.747-20.748h-95.17c-11.44 0-20.747 9.307-20.747 20.748v4.038l-24.006 7.691c-11.011 3.527-18.408 13.665-18.408 25.226v81.938c0 4.142 3.357 7.5 7.5 7.5zm49.914-126.393c0-3.17 2.578-5.748 5.747-5.748h95.17c3.169 0 5.747 2.578 5.747 5.748v44.005c0 3.169-2.578 5.748-5.747 5.748h-95.17c-3.169 0-5.747-2.578-5.747-5.748z" fill="#1769c5" data-original="#000000" style=""/><path d="m441.746 198.397h-52.988c-4.143 0-7.5 3.358-7.5 7.5v69.006c-2.375-.85-16.189-1.317-16.189-1.317v-175.643c0-4.142-3.357-7.5-7.5-7.5s-7.5 3.358-7.5 7.5v175.643h-191.493v-103.945c0-4.142-3.357-7.5-7.5-7.5s-7.5 3.358-7.5 7.5v103.946s-13.815.467-16.189 1.317v-69.006c0-4.142-3.357-7.5-7.5-7.5h-52.989c-4.143 0-7.5 3.358-7.5 7.5s3.357 7.5 7.5 7.5h11.673v76.372c0 12.824 9.856 21.11 25.11 21.11h8.705v.296c0 23.798 19.361 43.16 43.16 43.16h30.526v14.253c0 12.281 9.991 22.273 22.272 22.273h19.283v22.871h-39.142c-4.143 0-7.5 3.358-7.5 7.5s3.357 7.5 7.5 7.5h39.142v26.525h-61.831c-14.719 0-26.693 11.975-26.693 26.693 0 14.719 11.975 26.694 26.693 26.694 14.719 0 26.693-11.975 26.693-26.694 0-4.192-.974-8.16-2.704-11.693h40.545c-1.73 3.534-2.704 7.501-2.704 11.693 0 14.719 11.975 26.694 26.693 26.694 14.719 0 26.693-11.975 26.693-26.694 0-4.192-.974-8.16-2.704-11.693h40.545c-1.729 3.534-2.704 7.501-2.704 11.693 0 14.719 11.975 26.694 26.693 26.694 14.719 0 26.693-11.975 26.693-26.694s-11.975-26.693-26.693-26.693h-61.831v-64.396h19.283c12.281 0 22.272-9.992 22.272-22.273v-14.253h30.526c23.799 0 43.16-19.362 43.16-43.16v-.296h8.705c15.254 0 25.11-8.286 25.11-21.11v-76.372h11.673c4.143 0 7.5-3.358 7.5-7.5.006-4.143-3.352-7.501-7.494-7.501zm-348.175 91.373v-76.372h18.815v82.482h-8.705c-10.11-.001-10.11-4.44-10.11-6.11zm83.92 192.18c0 6.448-5.246 11.694-11.693 11.694s-11.693-5.246-11.693-11.694 5.246-11.693 11.693-11.693 11.693 5.245 11.693 11.693zm76.831 11.694c-6.447 0-11.693-5.246-11.693-11.694s5.246-11.693 11.693-11.693 11.693 5.246 11.693 11.693c0 6.448-5.246 11.694-11.693 11.694zm100.218-11.694c0 6.448-5.246 11.694-11.693 11.694s-11.693-5.246-11.693-11.694 5.246-11.693 11.693-11.693 11.693 5.245 11.693 11.693zm-88.525-26.693h-23.387v-64.396h23.387zm41.556-86.669c0 4.01-3.263 7.273-7.272 7.273h-91.953c-4.01 0-7.272-3.263-7.272-7.273v-14.253h106.498v14.253zm73.687-57.412c0 15.527-12.633 28.16-28.16 28.16h-197.551c-15.527 0-28.16-12.633-28.16-28.16v-7.796-7.199c0-4.187 3.406-7.594 7.594-7.594h238.684c4.188 0 7.594 3.407 7.594 7.594v7.199 7.796zm33.815-21.406c0 1.671 0 6.11-10.11 6.11h-8.705v-82.482h18.815z" fill="#1769c5" data-original="#000000" style=""/><path d="m292.322 118.429h-76c-4.143 0-7.5 3.358-7.5 7.5s3.357 7.5 7.5 7.5h76c4.143 0 7.5-3.358 7.5-7.5s-3.357-7.5-7.5-7.5z" fill="#1769c5" data-original="#000000" style=""/><path d="m292.322 159.035h-76c-4.143 0-7.5 3.358-7.5 7.5s3.357 7.5 7.5 7.5h76c4.143 0 7.5-3.358 7.5-7.5s-3.357-7.5-7.5-7.5z" fill="#1769c5" data-original="#000000" style=""/><path d="m292.322 199.641h-76c-4.143 0-7.5 3.358-7.5 7.5s3.357 7.5 7.5 7.5h76c4.143 0 7.5-3.358 7.5-7.5s-3.357-7.5-7.5-7.5z" fill="#1769c5" data-original="#000000" style=""/></g></g></svg>
