<?xml version="1.0"?>
<svg xmlns="http://www.w3.org/2000/svg" xmlns:xlink="http://www.w3.org/1999/xlink" xmlns:svgjs="http://svgjs.com/svgjs" version="1.1" width="512" height="512" x="0" y="0" viewBox="0 0 512 512" style="enable-background:new 0 0 512 512" xml:space="preserve" class=""><g><g xmlns="http://www.w3.org/2000/svg"><path d="m300.512 123.272c-4.143 0-7.5 3.357-7.5 7.5v38.516c0 4.143 3.357 7.5 7.5 7.5s7.5-3.357 7.5-7.5v-38.516c0-4.142-3.358-7.5-7.5-7.5z" fill="#1769c5" data-original="#000000" style="" class=""/><path d="m274.099 370.156 23.2-14.36c3.577-2.213 5.713-6.045 5.713-10.251v-98.945c0-4.369-2.371-8.404-6.188-10.531-3.816-2.126-8.496-2.021-12.213.28l-23.205 14.361c-3.575 2.214-5.709 6.046-5.709 10.25v98.945c0 4.369 2.371 8.404 6.188 10.531 3.813 2.124 8.49 2.025 12.214-.28zm13.913-57.116h-17.314v-19.575h17.314zm-17.315 41.581v-26.581h17.314v15.864zm17.315-102.737v26.581h-17.314v-15.865z" fill="#1769c5" data-original="#000000" style="" class=""/><path d="m361.516 266.222c0 18.758 15.261 34.019 34.019 34.019s34.019-15.261 34.019-34.019-15.261-34.019-34.019-34.019-34.019 15.261-34.019 34.019zm53.037 0c0 10.487-8.531 19.019-19.019 19.019s-19.019-8.531-19.019-19.019 8.531-19.019 19.019-19.019 19.019 8.531 19.019 19.019z" fill="#1769c5" data-original="#000000" style="" class=""/><path d="m475.594 316.645-18.038-221.325c-.228-2.784-1.983-5.212-4.558-6.3l-118.331-49.983c-3.922-1.685-7.214.685-7.114.652-2.127 1.42-3.342 3.811-3.342 6.241v43.747h-16.199v-82.177c0-4.143-3.357-7.5-7.5-7.5s-7.5 3.357-7.5 7.5v82.177h-16.199v-18.747c0-2.24-1.002-4.363-2.73-5.788-1.729-1.425-4.005-2-6.203-1.573l-67.783 13.201c-4.065.791-6.72 4.729-5.928 8.795.791 4.065 4.727 6.726 8.795 5.928l58.849-11.461v120.543c0 4.143 3.357 7.5 7.5 7.5h54.898v286.423c-9.382 1.64-18.974 2.503-28.699 2.503-23.627 0-46.42-4.851-67.746-14.417-40.363-18.108-73.08-52.434-88.519-96.027-7.802-22.032-10.785-45.144-8.865-68.692.874-10.73 16.704-204.959 17.576-215.658l25.019-4.873c4.065-.791 6.72-4.729 5.928-8.795-.791-4.064-4.726-6.725-8.795-5.928l-30.599 5.959c-3.3.643-5.769 3.401-6.042 6.752l-12.654 155.263-49.173 21.115c-28.509 12.241-42.784 44.696-32.499 73.886 3.579 10.156 7.677 20.151 12.182 29.707 1.279 2.713 3.976 4.304 6.789 4.304 1.071 0 2.16-.23 3.193-.718 3.746-1.767 5.352-6.235 3.586-9.982-4.289-9.097-8.192-18.617-11.603-28.295-7.671-21.771 2.99-45.981 24.27-55.118l41.876-17.982-4.005 49.145c-2.092 25.672 1.164 50.878 9.678 74.919 7.469 21.091 18.64 40.342 33.223 57.326l-33.284-8.055c-9.081-2.198-17.008-7.015-22.925-13.93-8.496-9.929-16.369-20.802-23.401-32.315-2.159-3.536-6.776-4.65-10.31-2.491-3.535 2.159-4.65 6.774-2.491 10.31 7.446 12.192 15.792 23.716 24.805 34.249 7.979 9.326 18.628 15.812 30.793 18.757l57.29 13.865c12.913 10.959 27.244 20.004 42.817 26.99 23.27 10.435 48.129 15.728 73.886 15.728 60.836 0 117.607-30.379 151.332-81.962 2.267-3.468 1.294-8.115-2.173-10.382-3.468-2.268-8.115-1.293-10.382 2.173-22.561 34.508-56.473 58.803-95.078 69.322v-433.912l103.764 43.83 17.668 216.794c2.222 27.252-2.075 53.71-12.771 78.641-1.633 3.807.129 8.217 3.936 9.85 3.815 1.635 8.219-.135 9.85-3.936 11.504-26.817 16.323-56.478 13.936-85.773zm-198.782-123.571v-88.397h47.398v88.397z" fill="#1769c5" data-original="#000000" style="" class=""/></g></g></svg>
