<?xml version="1.0"?>
<svg xmlns="http://www.w3.org/2000/svg" xmlns:xlink="http://www.w3.org/1999/xlink" xmlns:svgjs="http://svgjs.com/svgjs" version="1.1" width="512" height="512" x="0" y="0" viewBox="0 0 256 256" style="enable-background:new 0 0 512 512" xml:space="preserve" class=""><g transform="matrix(1,0,0,1,0,0)"><path xmlns="http://www.w3.org/2000/svg" d="m92.071 173.065v-120.13c0-3.278 2.657-5.935 5.935-5.935h-62.006c-5.523 0-10 4.477-10 10v112c0 5.523 4.477 10 10 10h62.006c-3.278 0-5.935-2.657-5.935-5.935z" fill="#ffffff" data-original="#a4d4a0" style="" class=""/><path xmlns="http://www.w3.org/2000/svg" d="m220 47h-62.006c3.278 0 5.935 2.657 5.935 5.935v120.13c0 3.278-2.657 5.935-5.935 5.935h62.006c5.523 0 10-4.477 10-10v-112c0-5.523-4.477-10-10-10z" fill="#ffffff" data-original="#419b46" style="" class=""/><path xmlns="http://www.w3.org/2000/svg" d="m163.929 173.065v-120.13c0-3.278-2.657-5.935-5.935-5.935h-59.988c-3.278 0-5.935 2.657-5.935 5.935v120.13c0 3.278 2.657 5.935 5.935 5.935h59.989c3.277 0 5.934-2.657 5.934-5.935z" fill="#ffffff" data-original="#65bc49" style="" class=""/><path xmlns="http://www.w3.org/2000/svg" d="m220 182h-184c-7.168 0-13-5.832-13-13v-112c0-7.168 5.832-13 13-13h184c7.168 0 13 5.832 13 13v112c0 7.168-5.832 13-13 13zm-184-132c-3.859 0-7 3.14-7 7v112c0 3.86 3.141 7 7 7h184c3.859 0 7-3.14 7-7v-112c0-3.86-3.141-7-7-7z" fill="#1769c5" data-original="#1c2d6b" style="" class=""/><path xmlns="http://www.w3.org/2000/svg" d="m173 212c-16.542 0-30-13.458-30-30v-30c0-9.925 8.075-18 18-18h24c9.925 0 18 8.075 18 18v30c0 16.542-13.458 30-30 30zm-12-72c-6.617 0-12 5.383-12 12v30c0 13.234 10.767 24 24 24s24-10.766 24-24v-30c0-6.617-5.383-12-12-12z" fill="#1769c5" data-original="#1c2d6b" style="" class=""/><path xmlns="http://www.w3.org/2000/svg" d="m164 200v-58c0-2.761 2.239-5 5-5h-8c-8.284 0-15 6.716-15 15v30c0 14.912 12.088 27 27 27-4.971 0-9-4.029-9-9z" fill="#ffffff" data-original="#ede49d" style="" class=""/><path xmlns="http://www.w3.org/2000/svg" d="m185 137h-8c2.761 0 5 2.239 5 5v58c0 4.971-4.029 9-9 9 14.912 0 27-12.088 27-27v-30c0-8.284-6.716-15-15-15z" fill="#ffffff" data-original="#d3ba2a" style="" class=""/><path xmlns="http://www.w3.org/2000/svg" d="m182 200v-58c0-2.761-2.239-5-5-5h-8c-2.761 0-5 2.239-5 5v58c0 4.971 4.029 9 9 9s9-4.029 9-9z" fill="#ffffff" data-original="#eee045" style="" class=""/><path xmlns="http://www.w3.org/2000/svg" d="m173 212c-16.542 0-30-13.458-30-30v-30c0-9.925 8.075-18 18-18h24c9.925 0 18 8.075 18 18v30c0 16.542-13.458 30-30 30zm-12-72c-6.617 0-12 5.383-12 12v30c0 13.234 10.767 24 24 24s24-10.766 24-24v-30c0-6.617-5.383-12-12-12z" fill="#1769c5" data-original="#1c2d6b" style="" class=""/><path xmlns="http://www.w3.org/2000/svg" d="m173 167c-3.314 0-6-2.686-6-6v-6c0-3.314 2.686-6 6-6 3.314 0 6 2.686 6 6v6c0 3.314-2.686 6-6 6z" fill="#ffffff" data-original="#e95947" style="" class=""/><path xmlns="http://www.w3.org/2000/svg" d="m173 170c-4.963 0-9-4.038-9-9v-6c0-4.962 4.037-9 9-9s9 4.038 9 9v6c0 4.962-4.037 9-9 9zm0-18c-1.654 0-3 1.346-3 3v6c0 1.654 1.346 3 3 3s3-1.346 3-3v-6c0-1.654-1.346-3-3-3z" fill="#1769c5" data-original="#1c2d6b" style="" class=""/></g></svg>
